<?xml version="1.0" encoding="utf-8"?>
<!DOCTYPE svg PUBLIC "-//W3C//DTD SVG 1.0//EN" "http://www.w3.org/TR/2001/REC-SVG-20010904/DTD/svg10.dtd">
<svg version="1.0" xmlns="http://www.w3.org/2000/svg" width="826px" height="201px" viewBox="0 0 826 201" preserveAspectRatio="xMidYMid meet">
 <g fill="#000000">
  <path d="M0 100.5 l0 -100.5 413 0 413 0 0 100.5 0 100.5 -413 0 -413 0 0 -100.5z m159 66.5 c1.4 -0.8 3.8 -6.9 8.6 -21.8 3.6 -11.4 10.4 -32.4 15 -46.8 4.6 -14.3 8.4 -26.4 8.4 -26.7 0 -0.4 -6.2 -5.3 -13.7 -10.9 -7.6 -5.7 -25.9 -19.4 -40.6 -30.5 l-26.9 -20.3 -22.6 17.2 c-12.5 9.5 -30.7 23.3 -40.4 30.6 -9.8 7.3 -17.8 13.6 -17.8 14 0 0.4 1.1 4.1 2.4 8.2 8.7 27.2 13.4 42.3 19.5 62.5 4.4 14.4 7.6 23.4 8.7 24.2 2.3 1.7 96.4 1.9 99.4 0.3z m514.5 -10.1 c8.1 -2.6 8.9 -3.2 8.1 -6 -1.2 -4.6 -1.9 -5 -5.7 -3.7 -2.1 0.8 -8.7 1.3 -17.9 1.3 -14.1 0 -14.7 -0.1 -20.4 -3 -6.8 -3.4 -11.6 -8.8 -14.5 -16.3 -2.6 -6.7 -3 -24.3 -0.6 -31.3 2.5 -7.3 8.2 -13.9 15 -17.3 5.1 -2.5 7.4 -3 16 -3.4 9.3 -0.4 14.9 0.4 24.1 3.3 1.7 0.5 2.2 0 3.1 -2.8 1 -3.4 0.9 -3.5 -2.6 -5.5 -8.8 -5 -22.3 -6.4 -34 -3.7 -18.3 4.4 -33 20.5 -36 39.6 -2.1 13.2 3.2 28.2 13.5 38.4 12 11.8 34.2 16.3 51.9 10.4z m-277 -1.2 c6.3 -3.6 11.2 -3.6 12.1 -0.2 0.6 2.3 1.1 2.5 6.4 2.5 l5.8 0 0.4 -21.7 c0.4 -24.6 -0.1 -28.9 -4 -35.3 -2.2 -3.5 -4.3 -5.3 -9.6 -8 -6.5 -3.3 -7.4 -3.5 -16.5 -3.4 -6.9 0 -11.6 0.7 -16.8 2.2 -7.2 2.2 -7.3 2.3 -7.3 5.6 l0 3.4 3.8 -0.9 c6.9 -1.6 22.3 -1 26.7 1 6.5 3 8.8 6.2 9.3 13.1 l0.4 6 -8.8 0 c-10.1 0 -23.9 2.9 -29.1 6.1 -10.4 6.4 -12.2 18.8 -3.9 26.8 4.8 4.7 9.7 6.2 18.7 5.8 5.9 -0.3 8.6 -0.9 12.4 -3z m350 1.1 c5.8 -1.8 8 -3.2 12.7 -7.8 8.4 -8.5 9.9 -15.8 4.8 -24.6 -3.9 -6.9 -9.7 -10.5 -23.8 -14.9 -18.4 -5.7 -22.2 -7.5 -24.3 -11.5 -3.9 -7.2 -1.5 -16.5 4.9 -19.6 7.3 -3.5 24 -2.6 40 2.2 2 0.6 2.2 0.3 2.2 -3.5 0 -4.9 -1.7 -6.3 -10.5 -8.5 -13.6 -3.3 -25.4 -2.8 -35.7 1.6 -6.6 2.8 -12.3 9.3 -14.3 16.2 -1.5 5.2 -1.5 6 -0.1 10.4 1.7 5 7.1 11.4 11.5 13.6 2.5 1.3 9 3.4 26.1 8.6 5.2 1.6 8.5 3.3 10.7 5.5 3 3 3.3 3.9 3.3 9.4 0 8 -1.4 10.6 -6.9 13.3 -4 2 -6.1 2.2 -16.1 2.2 -10.5 -0.1 -13.9 -0.6 -24.6 -3.9 -1.8 -0.6 -2.3 -0.1 -3.3 2.6 -0.6 1.7 -1.1 3.5 -1.1 4 0 0.8 9.8 4.2 16.5 5.8 7.7 1.8 20.4 1.3 28 -1.1z m-475.3 -39 l0.3 -40.3 13.8 -0.3 13.7 -0.3 0 -6.4 0 -6.5 -36 0 -36 0 0 6.5 0 6.5 14.5 0 14.5 0 0 40.5 0 40.5 7.5 0 7.5 0 0.2 -40.2z m51.9 37.5 c0 -1.6 0 -8.2 0 -14.8 -0.2 -17.8 1.1 -27.7 4.2 -32.4 3.1 -4.6 8.4 -7.4 15.7 -8.1 l5.5 -0.5 0.3 -4.7 c0.3 -4.1 0 -4.8 -1.5 -4.8 -4.1 0 -9.7 2.3 -13.2 5.6 -2.9 2.5 -4.7 3.4 -7.5 3.4 -3.5 0 -3.6 -0.1 -3.6 -3.9 0 -2.2 -0.4 -4.3 -1 -4.6 -0.5 -0.3 -3.2 -0.3 -6 0.1 l-5 0.7 0 33.3 0 33.4 6 0 c5.9 0 6 -0.1 6.1 -2.7z m132.7 -28.3 c0.1 -16.8 0 -32 -0.3 -33.8 l-0.6 -3.3 -5.7 0.3 c-5.4 0.3 -5.7 0.4 -6.3 3.3 -0.9 4 -1.1 49.2 -0.2 57.8 l0.6 6.8 6.1 -0.3 6.1 -0.3 0.3 -30.5z m34.4 6.8 c0.3 -27.7 0.7 -29.1 8.6 -32.9 5.8 -2.8 18.8 -2.5 22.2 0.6 4.6 4 5 6.9 5 32.5 l0 24 6.5 0 6.5 0 0 -23.3 c0 -26.2 -0.8 -31.2 -6.2 -37.3 -1.7 -1.9 -5 -4.5 -7.2 -5.6 -7.3 -3.8 -20.2 -2.2 -27.5 3.4 -1.3 1 -3.8 1.8 -5.6 1.8 -3.4 0 -4.5 -1.3 -4.5 -5.1 0 -1.5 -0.7 -1.9 -3.9 -1.9 -7.6 0 -7.1 -2.6 -7.1 34.6 l0 33.4 6.4 0 6.5 0 0.3 -24.2z m95.8 -20.3 l0 -44.5 -5.5 0 -5.5 0 0 44.5 0 44.5 5.5 0 5.5 0 0 -44.5z m218 0 l0 -44.5 -6 0 -6 0 0 44.5 0 44.5 6 0 6 0 0 -44.5z m-350.7 -39.5 c3.5 -2.8 4.2 -5.6 2.2 -8.6 -2.4 -3.7 -6 -4.7 -9.6 -2.8 -5.2 2.7 -5.7 7.8 -1.1 11.4 3.1 2.5 5.3 2.5 8.5 0z"/>
  <path d="M60.7 163.3 c-0.3 -0.5 -2.6 -7.8 -5.2 -16.3 -2.6 -8.5 -5.9 -19.1 -7.2 -23.5 -1.4 -4.4 -2.8 -9.3 -3.3 -11 -0.4 -1.6 -3.1 -10.3 -5.9 -19.2 -6.6 -21 -6.6 -21.9 0.2 -27 2.8 -2.2 19.1 -14.4 36 -27.1 27.6 -20.8 31.2 -23.2 34.6 -23.2 3.4 0 6.4 1.9 25.5 16.1 27.4 20.5 26.8 18.4 9.8 34.9 -12.7 12.3 -12.5 12.2 4.1 -1.8 13.9 -11.9 14.3 -11.9 27.3 -2 7.8 6 9.4 7.7 9.4 9.9 0 1.5 -3.9 15.1 -8.6 30.1 -4.7 15 -9.9 31.8 -11.6 37.3 -1.6 5.5 -4 12.9 -5.2 16.5 l-2.1 6.5 -48.7 0.3 c-26.8 0.1 -48.9 -0.1 -49.1 -0.5z m60.6 -31.8 c3.1 -1.6 6.5 -3.7 7.4 -4.8 1.3 -1.4 0.7 -1.2 -2.1 0.7 -5.5 3.7 -10.7 4.8 -20.5 4.4 -13.1 -0.5 -21.2 -5.6 -27.3 -17 -2 -3.8 -2.3 -5.7 -2.3 -15.8 0 -10.1 0.3 -12.1 2.4 -16.4 3.3 -6.7 9.1 -12.1 15.7 -14.6 6.7 -2.4 20 -2.7 26.3 -0.5 5.3 1.8 5.2 1.1 -0.1 -1.7 -3.5 -1.9 -5.9 -2.3 -12.8 -2.3 -7.2 0 -9.2 0.4 -13.5 2.7 -8.1 4.2 -14.1 10.2 -17.7 17.6 -2.9 5.9 -3.3 7.7 -3.3 14.7 0 9.6 2.8 16.6 9.6 24 11 11.9 25.3 15.3 38.2 9z m17.2 -15.7 c4.1 -7.6 5.6 -14.1 4.4 -20.1 -0.5 -2.7 -0.9 -5.1 -0.9 -5.3 0 -0.2 -0.3 -0.4 -0.7 -0.4 -0.5 0 -0.8 4.2 -0.8 9.3 0 10.2 -1 13.5 -6.3 21.2 -2.8 4 -3 4.5 -1 2.7 1.4 -1.3 3.8 -4.6 5.3 -7.4z"/>
  <path d="M379.3 151.3 c-1.2 -0.2 -3.4 -1.8 -4.8 -3.4 -2 -2.5 -2.5 -4.1 -2.5 -8.7 0 -3.1 0.6 -6.4 1.3 -7.3 2.6 -3.4 8.9 -5.1 21.5 -5.6 l12.2 -0.6 0 9.1 c0 8.7 -0.1 9.2 -2.9 12 -4.4 4.3 -15.3 6.3 -24.8 4.5z"/>
 </g>
 <g fill="#2dc296">
  <path d="M369.6 160.6 c-4.7 -1.8 -9.4 -6.1 -11.2 -10.3 -2 -4.7 -1.8 -15.1 0.5 -19.3 4.5 -8.6 18.6 -14 36.6 -14 l8.8 0 -0.7 -3.2 c-0.8 -4.3 -4.9 -8.4 -10.3 -10.4 -5.3 -2 -18.7 -1.5 -24.5 1 -2.1 0.9 -4 1.6 -4.3 1.6 -0.3 0 -0.5 -3.4 -0.5 -7.5 l0 -7.4 7.3 -2.3 c5.8 -1.8 9.6 -2.2 19.8 -2.3 12.5 0 12.7 0 19.5 3.5 5.3 2.7 7.4 4.5 9.6 8 4 6.5 4.7 12 4.2 36 -0.2 11.8 -0.4 22.7 -0.4 24.3 l0 2.7 -9 0 c-6.5 0 -9 -0.3 -9 -1.2 -0.1 -3.6 -1.6 -3.9 -6.6 -1.1 -4.3 2.5 -6.1 2.8 -15.4 3 -7.2 0.2 -11.7 -0.1 -14.4 -1.1z m24 -12.7 c2.5 -0.7 5.8 -2.5 7.5 -4.1 2.6 -2.6 2.9 -3.6 2.9 -9 l0 -6.1 -9.3 0.6 c-9.5 0.6 -16.2 2.6 -18.4 5.6 -2 2.6 -1.5 6.7 1.2 10 3.5 4 8.3 4.9 16.1 3z"/>
  <path d="M253 120.5 l0 -40.5 -14.5 0 -14.5 0 0 -9.5 0 -9.5 39.3 0.2 39.2 0.3 -0.2 9 -0.2 9 -13.8 0.5 -13.8 0.5 -0.3 40.3 -0.2 40.2 -10.5 0 -10.5 0 0 -40.5z"/>
  <path d="M308 124.6 c0 -41.6 -1.2 -37.3 10.5 -37.2 l7 0.1 0.3 4.3 c0.2 2.3 0.7 4.2 1.1 4.2 0.4 0 1.8 -1.2 3.2 -2.6 3.2 -3.5 6.5 -5 12.8 -6.2 8.8 -1.6 9.2 -1.2 8.9 7.7 l-0.3 7.6 -5.5 0.5 c-7.3 0.7 -12.6 3.5 -15.7 8.1 -3.2 4.8 -4.7 17.8 -3.9 32.5 0.3 5.5 0.3 11.7 -0.1 13.7 l-0.6 3.7 -8.8 0 -8.9 0 0 -36.4z"/>
  <path d="M439.7 154.3 c-0.9 -8.6 -0.7 -59.8 0.2 -63.8 l0.6 -3 8.7 -0.3 8.7 -0.3 0.6 3.3 c0.3 1.8 0.4 18.4 0.3 36.8 l-0.3 33.5 -9.1 0.3 -9.1 0.3 -0.6 -6.8z"/>
  <path d="M474 124.6 c0 -32.3 0.2 -36.5 1.6 -37 2.3 -0.9 15.4 -0.7 15.5 0.2 0 0.4 0.2 1.7 0.3 2.9 0.4 3.3 1 3.6 3.7 1.5 4.8 -3.8 12 -5.7 20.9 -5.7 9.8 0.1 14.6 2 19.8 7.9 5.5 6.3 6.2 10.9 6.2 40.3 l0 26.3 -9.5 0 -9.5 0 0 -24 c0 -25.5 -0.5 -28.5 -4.9 -32.4 -3.3 -2.9 -11 -3.3 -16.3 -0.7 -7.9 3.8 -8.3 5.1 -8.6 32.9 l-0.3 24.2 -9.5 0 -9.4 0 0 -36.4z"/>
  <path d="M97.3 136.6 c-10.4 -3.4 -19.4 -11.4 -24.1 -21.4 -2.4 -5.1 -2.7 -6.9 -2.7 -16.7 0 -10.4 0.2 -11.4 3.3 -17.7 7.2 -14.9 22.3 -22.6 39.8 -20.6 5.9 0.6 15.5 4.5 17 6.9 0.3 0.6 -0.7 2.4 -2.3 4.1 l-3 2.9 -4.4 -2.3 c-9.8 -5.1 -24.5 -2.8 -32.7 5.1 -6.4 6.2 -8.7 12.1 -8.7 22.1 0 6.9 0.5 9.3 2.3 12.8 3.3 6.2 8.4 11.4 13.9 14.2 6.7 3.5 18.8 3.5 25.1 0.2 12.1 -6.4 18.8 -19.7 16.1 -32.2 -1.1 -5 -1 -5.3 1.7 -8.1 3.4 -3.6 4.2 -3.6 5.5 -0.2 7.3 19.1 -1 39.3 -20.2 49 -4.4 2.2 -7 2.7 -13.9 3 -5.3 0.2 -10.1 -0.2 -12.7 -1.1z"/>
  <path d="M445.6 78.9 c-4 -1.1 -6.5 -3.6 -7.2 -7.5 -1.6 -8.6 3.2 -13.9 12 -13.1 6.5 0.6 9.6 3.9 9.6 10.2 0 7.5 -6.8 12.4 -14.4 10.4z"/>
 </g>
 <g fill="#19a2cf">
  <path d="M56.6 169.7 c-1.1 -0.8 -4.3 -9.8 -8.7 -24.2 -6.1 -20.2 -10.8 -35.3 -19.5 -62.5 -4.5 -14 -5.1 -12.9 15.3 -28.2 9.8 -7.3 28 -21.1 40.5 -30.6 17.6 -13.4 23.3 -17.2 25.6 -17.2 2.4 0 8.9 4.4 29.9 20.3 14.7 11.1 33 24.8 40.6 30.5 12.5 9.3 15.5 12.2 12.7 12.2 -1.5 0 -1.2 2.8 0.3 3.2 1 0.2 0 4.4 -3.9 16.3 -2.9 8.8 -8.3 25.7 -12 37.5 -3.7 11.8 -7.1 21.7 -7.6 21.8 -0.4 0.2 -0.8 1.6 -0.9 3 0 1.5 -1.2 6.1 -2.7 10.2 -2.2 6 -3.2 7.6 -5.2 8.1 -1.4 0.4 -25 0.7 -52.6 0.8 -39.1 0.1 -50.4 -0.2 -51.8 -1.2z m101.2 -16.2 c1.3 -3.8 2.7 -8.3 3.2 -10 0.5 -1.6 5 -16.3 10.1 -32.5 5 -16.2 9.8 -31.4 10.5 -33.6 l1.2 -4.1 -9.4 -7.2 c-5.8 -4.4 -9.9 -6.9 -10.7 -6.5 -1.3 0.8 -25.3 21.2 -30.2 25.6 l-3 2.8 -0.3 -3.7 c-0.2 -2.1 -0.9 -4.1 -1.5 -4.6 -0.8 -0.5 3.5 -5.3 12.8 -14.2 7.7 -7.3 13.6 -13.7 13.2 -14.2 -0.5 -0.4 -10.1 -7.8 -21.5 -16.3 -14.9 -11.1 -20.6 -16 -20.4 -17.3 0.2 -0.9 -0.3 -1.7 -1.1 -1.7 -0.8 0 -1.4 0.6 -1.3 1.3 0 0.8 -13.8 11.9 -30.9 24.7 -42.1 31.6 -41.5 31.2 -41.5 32 0 0.4 0.7 2.6 1.5 4.9 0.8 2.2 1 4.1 0.5 4.1 -0.6 0 -1 0.5 -1 1 0 0.6 0.6 1 1.3 1 0.8 0 2.5 4.1 4.4 10.3 1.7 5.6 3.4 11 3.8 12 0.5 1.2 0.3 1.7 -0.9 1.7 -0.9 0 -1.6 0.7 -1.6 1.5 0 0.8 0.9 1.5 2 1.5 1.4 0 2.2 1.1 3.1 4.3 0.6 2.3 2.3 8.1 3.9 13 1.7 5.2 2.4 8.7 1.7 8.7 -0.6 0 -0.4 0.6 0.4 1.3 0.9 0.6 2.6 4.7 3.8 9 1.2 4.2 2.6 8.8 3.1 10.2 l1 2.5 45.7 -0.2 45.8 -0.3 2.3 -7z"/>
  <path d="M115 90.5 c10.3 -10.4 10.5 -10.5 10.8 -7.5 0.2 1.6 0.7 3 1.3 3 2.7 0 0.1 4 -4.9 7.8 -7.6 5.6 -10.8 7.2 -14.5 7.2 -3.1 0 -2.8 -0.3 7.3 -10.5z"/>
  <path d="M643.1 161.6 c-17.9 -3.5 -30.2 -14 -36 -30.9 -9.6 -27.9 6.5 -58.7 34 -65.2 8.3 -1.9 22.5 -1.9 30.3 0.1 5.2 1.3 14.6 5.7 14.6 6.8 0 0.2 -0.9 3.4 -2 7 -2.3 7.3 -3 7.7 -8.8 4.7 -14.9 -7.6 -35.7 -4.1 -44.4 7.5 -5 6.6 -6.8 12.2 -6.8 21.5 0 13.7 5.8 23.9 16.6 29.4 5.6 2.8 6.5 3 17.9 3 10.4 -0.1 12.7 -0.4 17.3 -2.5 6.1 -2.7 5.9 -2.8 9.2 5.9 2.6 6.6 2.2 7.2 -7.4 10.7 -8.7 3.1 -23.8 4 -34.5 2z"/>
  <path d="M723.5 161.9 c-9.3 -0.9 -24.4 -5.3 -25.2 -7.5 -0.3 -0.9 0.2 -4.2 1.2 -7.5 2.1 -6.8 2.8 -7.1 11.9 -3.9 16.2 5.8 35 3.9 38.5 -3.7 3.5 -7.6 -1.1 -13.7 -12.9 -17.3 -26.7 -8.1 -27.1 -8.3 -32.3 -13.6 -11.8 -12.2 -6.9 -34.3 9.2 -41.3 10.5 -4.5 27.4 -5.1 41.3 -1.6 10.3 2.7 10.8 3.2 10.8 12.4 0 4.3 -0.2 8 -0.5 8.3 -0.3 0.3 -3.2 -0.5 -6.4 -1.8 -3.1 -1.3 -10.1 -3.1 -15.4 -4 -8.1 -1.5 -10.5 -1.5 -15.1 -0.5 -9.3 2.1 -13.3 8.2 -9.8 14.9 2.2 4.2 5.7 5.9 24.4 11.7 14.1 4.4 19.9 8 23.8 14.9 2.4 4.1 3 6.3 3 11.1 0 9.4 -1.5 13.2 -7.8 19.5 -4.8 4.7 -6.9 6 -12.7 7.7 -8.4 2.6 -15.2 3.2 -26 2.2z"/>
  <path d="M572 113.5 l0 -47.5 8.5 0 8.5 0 0 47.5 0 47.5 -8.5 0 -8.5 0 0 -47.5z"/>
  <path d="M789 113.5 l0 -47.5 9 0 9 0 0 47.5 0 47.5 -9 0 -9 0 0 -47.5z"/>
 </g>
 <g fill="#1b98c6">
  <path d="M56.9 169.7 c-2.6 -2 -1.2 -3.6 2.4 -2.7 1.8 0.5 5 1.1 7.2 1.4 2.2 0.3 4.1 0.5 4.3 0.6 0.1 0 0.2 0.5 0.2 1 0 1.4 -12.2 1.2 -14.1 -0.3z"/>
  <path d="M72 170 c0 -0.5 1.6 -1 3.5 -1 1.9 0 3.5 0.5 3.5 1 0 0.6 -1.6 1 -3.5 1 -1.9 0 -3.5 -0.4 -3.5 -1z"/>
  <path d="M136 170.1 c0 -1.4 2 -1.8 10.9 -2 4.6 -0.1 9.2 -0.6 10.1 -1.1 1 -0.5 2 -0.7 2.3 -0.4 0.3 0.3 1.2 -0.3 1.9 -1.5 0.7 -1.2 1.9 -2.1 2.6 -2.1 1.9 0 0.7 5 -1.5 6.8 -2 1.4 -26.3 1.7 -26.3 0.3z"/>
  <path d="M661.6 162.3 c-1.3 -1.3 -0.5 -2.2 2.5 -2.8 1.8 -0.4 3.5 -0.3 4.2 0.4 0.7 0.7 1.4 0.5 2.3 -0.7 1.2 -1.6 1.4 -1.6 3.1 0.1 1.4 1.4 1.4 1.7 0.3 1.8 -1.5 0 -4.3 0.5 -9.1 1.3 -1.5 0.3 -2.9 0.2 -3.3 -0.1z"/>
  <path d="M735 161.2 c0 -1.1 0.9 -1.3 4 -0.8 2.5 0.4 4 0.2 4 -0.4 0 -0.5 0.7 -1 1.5 -1 2.3 0 1.8 1.9 -0.7 2.4 -6.2 1.3 -8.8 1.2 -8.8 -0.2z"/>
  <path d="M142.8 161.3 c1.2 -0.2 3.2 -0.2 4.5 0 1.2 0.2 0.2 0.4 -2.3 0.4 -2.5 0 -3.5 -0.2 -2.2 -0.4z"/>
  <path d="M646 161 c2 -1.3 4 -1.3 4 0 0 0.6 -1.2 1 -2.7 1 -2.2 0 -2.5 -0.2 -1.3 -1z"/>
  <path d="M51.6 157.8 c-0.6 -3.3 -0.8 -4 -1.9 -6.8 -0.3 -0.8 -1 -3.2 -1.6 -5.3 l-1 -3.9 2.5 2.5 c2 2.1 2.6 3.9 3.1 9.6 0.6 7.3 0 9.6 -1.1 3.9z"/>
  <path d="M575 160 c0 -0.5 1.7 -1 3.9 -1 2.1 0 5.3 -0.3 7 -0.6 2.4 -0.5 3.1 -0.3 3.1 1 0 1.3 -1.2 1.6 -7 1.6 -4 0 -7 -0.4 -7 -1z"/>
  <path d="M794 160 c0 -0.5 2.3 -1.2 5 -1.6 l5 -0.7 0 -17.8 c0 -15.2 0.2 -17.9 1.5 -17.9 1.3 0 1.5 2.8 1.5 19.5 l0 19.5 -6.5 0 c-3.6 0 -6.5 -0.4 -6.5 -1z"/>
  <path d="M676 158.6 c0 -0.8 1.4 -2.8 3 -4.4 1.7 -1.7 3 -3.5 3 -4 0 -0.5 0.7 -1.2 1.5 -1.6 1 -0.3 1.5 0.1 1.5 1.2 0 1 0.5 2.3 1.2 3 0.8 0.8 0.5 1.6 -1.3 3.1 -2.3 2 -2.8 2.2 -4.8 2.5 -0.5 0 -1.3 0.4 -1.7 0.9 -1.2 1.2 -2.4 0.8 -2.4 -0.7z"/>
  <path d="M628.6 156.8 c-2.6 -1.3 -3.5 -2.3 -2.8 -3 1.1 -1.1 5.7 1.4 6.6 3.8 0.3 0.8 0.4 1.4 0.3 1.3 -0.1 -0.1 -1.9 -1 -4.1 -2.1z"/>
  <path d="M167.1 156.8 c-0.1 -1 -0.6 -1.8 -1.2 -1.8 -0.6 0 -0.8 -1.5 -0.4 -4.3 0.5 -3.5 0.3 -4.6 -1.3 -6 -1.9 -1.8 -2.1 -1.8 -3.1 0 -1.6 2.7 -1.3 1 0.5 -3.3 0.9 -2.2 2.2 -5.9 2.9 -8.4 l1.2 -4.5 0.7 7.2 c0.5 4.3 1.2 7 1.8 6.7 0.5 -0.3 0.7 -1.2 0.4 -2 -0.3 -0.8 -0.2 -1.4 0.3 -1.4 0.5 0 1.1 -0.9 1.4 -2 0.6 -2.5 3.7 -2.7 3.6 -0.2 0 2.6 -6.7 22 -6.8 20z"/>
  <path d="M700.3 155.7 c-2.7 -1.2 -2.8 -2.6 -0.7 -9.2 0.9 -2.7 1.8 -5.6 2 -6.3 0.3 -1 1.1 -0.9 3.5 0.4 1.8 0.9 4.8 2.2 6.8 3 3.5 1.4 3.4 1.4 -3 0.8 l-6.6 -0.5 -0.7 4.1 c-0.4 2.4 -0.2 4.9 0.5 6.1 1.3 2.6 1 2.9 -1.8 1.6z"/>
  <path d="M753.3 156.3 c-0.7 -0.2 -1.3 -1.3 -1.3 -2.4 0 -1.4 0.7 -1.9 2.8 -1.9 1.6 0 3.7 -0.7 4.8 -1.5 1 -0.8 2.8 -1.4 3.9 -1.4 1.6 0 1.1 0.8 -2.5 3.9 -4.5 4 -5.3 4.3 -7.7 3.3z"/>
  <path d="M572.3 151 c0 -3 0.2 -4.3 0.4 -2.7 0.2 1.5 0.2 3.9 0 5.5 -0.2 1.5 -0.4 0.2 -0.4 -2.8z"/>
  <path d="M60 154.3 c-1.9 -0.8 -3 -2.3 -3 -4.5 0 -3.1 2.5 -1.9 3.6 1.7 0.6 1.9 1.1 3.5 1 3.4 -0.1 0 -0.8 -0.3 -1.6 -0.6z"/>
  <path d="M643.9 145.6 c-0.3 -0.3 -2 -0.8 -3.9 -1.1 -3.5 -0.6 -5.3 -2.2 -4.3 -3.8 0.2 -0.4 1.7 0 3.1 0.9 1.5 1 4.5 2.3 6.7 3 3.2 1 3.5 1.3 1.4 1.3 -1.4 0.1 -2.8 -0.1 -3 -0.3z"/>
  <path d="M766.2 144.5 c-1.1 -1.3 -1 -1.5 0.7 -1.5 1.4 0 1.9 0.5 1.5 1.5 -0.7 1.8 -0.6 1.8 -2.2 0z"/>
  <path d="M677.3 142.3 c2.9 -1.6 4.4 -1.6 5 0.1 0.4 1 -0.4 1.3 -3.3 1.2 -3.7 -0.1 -3.8 -0.1 -1.7 -1.3z"/>
  <path d="M51.9 142 c0 -0.3 -0.2 -3.2 -0.5 -6.5 -0.3 -3.3 -0.9 -7.3 -1.5 -8.9 -1.2 -3.8 -1.1 -4.6 0.4 -4.6 1 0 5.5 11.8 7.5 19.7 0.2 0.8 -0.7 1.2 -2.7 1 -1.7 -0.1 -3.1 -0.4 -3.2 -0.7z"/>
  <path d="M611.2 140.3 c-0.7 -1.2 -1.2 -3 -1.2 -4 0.1 -1.3 0.5 -1.1 1.6 1 0.8 1.6 1.3 3.4 1.1 4 -0.2 0.7 -0.9 0.3 -1.5 -1z"/>
  <path d="M767.5 141.2 c-1.5 -1 -1.3 -17.2 0.2 -17.2 1.6 0 2.6 3.5 2.6 9.6 0 5.5 -1.2 8.7 -2.8 7.6z"/>
  <path d="M44.1 132.8 c-1.2 -4 -3.2 -10.5 -4.5 -14.5 -2.4 -7.3 -2.4 -9.2 0 -7.2 1.6 1.3 1.9 0.7 2.9 -5.3 0.6 -4 3.5 -5.5 3.5 -1.9 0 1.1 0.4 2.2 0.9 2.5 0.5 0.3 1.1 1.8 1.4 3.3 0.3 1.6 0.7 3.8 1 5.1 0.6 2.4 -1.7 3.3 -2.6 1 -0.5 -1.5 -4.1 0.1 -3.7 1.6 0.1 0.5 -0.3 1.2 -0.9 1.5 -0.7 0.5 -0.5 1.8 0.8 4.1 1.9 3.6 2.1 4.2 2.1 6 0 0.6 0.6 1 1.4 1 1 0 1.2 1.1 0.8 4.8 -0.2 2.6 -0.6 4.8 -0.7 5 -0.2 0.2 -1.2 -3 -2.4 -7z"/>
  <path d="M630.4 136.5 c-1 -0.8 -1.5 -1.5 -1 -1.5 0.5 0 0.3 -0.7 -0.4 -1.5 -0.7 -0.8 -1 -1.5 -0.7 -1.5 0.3 0 1.5 1.4 2.7 3 2.4 3.4 2.3 3.7 -0.6 1.5z"/>
  <path d="M572.3 132.5 c0 -2.7 0.2 -3.8 0.4 -2.2 0.2 1.5 0.2 3.7 0 5 -0.2 1.2 -0.4 0 -0.4 -2.8z"/>
  <path d="M605.6 126.5 c-0.3 -0.9 -0.6 -2.6 -0.5 -3.8 0.1 -1.6 0.4 -1.2 1 1.2 1 3.4 0.6 5.5 -0.5 2.6z"/>
  <path d="M622.2 126.8 c-1.8 -1.8 -1.6 -10.5 0.3 -11.2 1.2 -0.4 1.5 0.3 1.5 3 0 1.9 0.7 4.8 1.5 6.4 1.4 2.8 1.4 3 -0.3 3 -1 0 -2.3 -0.5 -3 -1.2z"/>
  <path d="M572.5 96.5 l0 -30 6 -0.1 6 0 -5.7 0.3 -5.8 0.4 -0.3 29.7 -0.2 29.7 0 -30z"/>
  <path d="M176.1 124.1 c-1.8 -1.1 -0.5 -5.1 1.7 -5.2 1.1 0 1.2 -0.3 0.5 -0.6 -1.8 -0.7 -1.6 -2.3 0.2 -2.3 1.8 0 2 -1.6 0.3 -2.3 -0.7 -0.3 -0.3 -0.6 0.8 -0.6 l2.1 -0.1 -1.8 5.7 c-2.2 6.6 -2.1 6.4 -3.8 5.4z"/>
  <path d="M738 122 c-3 -1 -6.6 -1.9 -8 -2 l-2.5 -0.1 2.4 -1.2 c1.8 -0.9 2.5 -0.9 2.8 0 0.2 0.6 1.2 0.9 2.1 0.6 2.1 -0.5 9.2 2.3 9.2 3.7 0 0.6 -0.1 1 -0.2 0.9 -0.2 0 -2.8 -0.9 -5.8 -1.9z"/>
  <path d="M805.1 119.4 c-1.2 -1.4 -1.2 -1.7 0 -2.5 1.2 -0.8 1.2 -1.1 -0.1 -2 -1.1 -0.8 -1.2 -1.2 -0.2 -1.6 1.4 -0.6 1.7 -6.3 0.2 -6.3 -1.4 0 -1.2 -4.7 0.3 -5.4 1 -0.5 1 -0.7 0 -1.2 -1.8 -0.8 -1.6 -2.4 0.2 -2.4 1.2 0 1.5 1.9 1.5 11.5 0 6.3 -0.1 11.5 -0.2 11.5 -0.2 -0.1 -0.9 -0.8 -1.7 -1.6z"/>
  <path d="M170 114.8 c2.4 -9.4 3.4 -10.1 4.4 -3.2 0.7 5.4 0.3 6.4 -2.9 6.4 -2.1 0 -2.2 -0.3 -1.5 -3.2z"/>
  <path d="M717.5 116 c-2.7 -1 -5 -2.3 -5.1 -2.9 -0.2 -0.7 0 -0.7 0.3 -0.1 0.2 0.5 0.9 0.8 1.4 0.4 1.7 -1 6.9 0.7 7.9 2.7 0.6 1 0.9 1.9 0.8 1.8 -0.2 0 -2.5 -0.9 -5.3 -1.9z"/>
  <path d="M759.3 115.6 c-1.2 -1.3 -3.8 -2.9 -5.9 -3.6 -4.7 -1.5 -6.6 -3 -3.8 -3 3.2 0 14.4 6.3 14.4 8.1 0 1.7 -2.7 0.9 -4.7 -1.5z"/>
  <path d="M623.1 108.8 c0 -1 -0.5 -1.8 -1.1 -1.8 -0.5 0 -1 -1.1 -1 -2.5 0 -1.5 0.6 -2.5 1.4 -2.5 2 0 2.3 0.9 1.5 5 -0.3 1.9 -0.7 2.7 -0.8 1.8z"/>
  <path d="M99 107.1 c0 -0.4 2.6 -3.2 5.8 -6.2 4.6 -4.4 6.4 -5.4 9.5 -5.6 2 -0.1 3.7 0.2 3.7 0.6 0 2.1 -9 9.2 -13.5 10.6 -5.9 1.8 -5.5 1.7 -5.5 0.6z"/>
  <path d="M34.4 101.3 c-0.4 -1.6 -1 -3.2 -1.4 -3.8 -0.5 -0.5 -1 -2.5 -1.3 -4.3 -0.3 -1.9 -0.8 -3.6 -1.1 -4 -0.3 -0.3 0.4 -1 1.7 -1.6 1.8 -0.9 2.3 -2.1 2.5 -6.4 0.4 -6.5 1.8 -6.4 4.4 0.3 2.8 7 3.9 13.5 2.3 13.5 -0.6 0 -1.7 -1 -2.3 -2.2 -0.9 -1.9 -1.1 -2 -1.1 -0.5 -0.1 1 -0.8 2.9 -1.7 4.3 -1.4 2 -1.5 3 -0.6 4.9 0.7 1.5 0.8 2.5 0.2 2.5 -0.5 0 -1.3 -1.2 -1.6 -2.7z m5.6 -12.3 c1.2 -0.8 1.1 -1 -0.7 -1 -1.3 0 -2.3 0.5 -2.3 1 0 1.3 1.1 1.3 3 0z"/>
  <path d="M728.3 103.3 c-1.3 -0.2 -2.3 -0.9 -2.3 -1.4 0 -1.1 -0.3 -1.2 4.5 0.6 3.8 1.3 2.7 1.7 -2.2 0.8z"/>
  <path d="M699.2 99.1 c-1.3 -4.3 -1.5 -8.3 -0.6 -13 1.3 -6.3 2.4 -2.8 2.2 6.9 -0.1 5.5 -0.3 10 -0.3 10 -0.1 0 -0.7 -1.7 -1.3 -3.9z"/>
  <path d="M623.3 101.3 c-1.8 -0.6 -1.6 -4.2 0.2 -4.9 2.1 -0.9 3.8 0.5 2.6 2 -0.6 0.7 -0.8 1.5 -0.5 1.8 0.8 0.9 -0.9 1.6 -2.3 1.1z"/>
  <path d="M719 99 c-0.8 -0.5 -1.1 -1.2 -0.7 -1.6 0.4 -0.4 1.5 0 2.4 0.9 1.8 1.8 0.8 2.3 -1.7 0.7z"/>
  <path d="M186.2 93.1 c-1.8 -1.1 -0.4 -6.1 1.7 -6.1 1.2 0 1.3 -0.2 0.3 -0.9 -1.1 -0.6 -0.9 -0.9 0.6 -1.3 2 -0.5 2 -0.4 0.7 3.9 -1.6 5.3 -1.7 5.4 -3.3 4.4z"/>
  <path d="M609.5 93 c-0.6 -1 3.5 -9.3 4.3 -8.6 0.2 0.2 -0.1 1.3 -0.7 2.4 -0.6 1.2 -1.1 3 -1.1 4.1 0 2.3 -1.6 3.6 -2.5 2.1z"/>
  <path d="M177 92 c0 -0.3 0.8 -2.6 1.8 -5.3 2 -5.2 3.2 -5.2 3.2 0.1 0 2.6 -0.4 3.3 -1.5 2.8 -0.8 -0.3 -1.9 0.2 -2.4 1.2 -0.6 0.9 -1.1 1.5 -1.1 1.2z"/>
  <path d="M629.2 90.4 c-1.1 -1.2 -1 -1.5 0.3 -2 2.1 -0.8 2.9 0.1 1.8 1.9 -0.7 1.3 -1 1.3 -2.1 0.1z"/>
  <path d="M125 90.2 c0 -0.4 -1.3 -1.3 -3 -2 l-2.9 -1.3 6.6 -7 c3.7 -3.8 6.9 -6.9 7.1 -6.9 0.3 0 -0.3 0.9 -1.3 2 -1 1.1 -1.4 2 -0.9 2 2 0.1 5.4 3.9 4.8 5.4 -0.3 0.9 -1 1.6 -1.4 1.6 -0.5 0 -2.5 1.6 -4.4 3.5 -3.7 3.6 -4.6 4.1 -4.6 2.7z"/>
  <path d="M676.5 84.9 c-2.7 -1.6 -5.8 -2.9 -6.7 -2.9 -1 0 -1.8 -0.7 -1.8 -1.5 0 -1.3 0.7 -1.5 3.8 -0.9 2 0.4 4.4 1.2 5.2 1.9 0.8 0.7 2.4 1.5 3.6 1.7 1.5 0.2 1.9 0.8 1.5 2.4 -0.6 2.2 -0.6 2.2 -5.6 -0.7z"/>
  <path d="M763.7 86.4 c-0.3 -0.3 -3.4 -1.6 -6.8 -2.9 -3.5 -1.2 -6.5 -2.8 -6.7 -3.4 -0.5 -1.6 5.8 -1.4 8.8 0.4 1.4 0.8 3.3 1.8 4.3 2.1 0.9 0.3 1.7 1.5 1.7 2.5 0 2 -0.3 2.3 -1.3 1.3z"/>
  <path d="M638.6 82.4 c-0.8 -2.2 -0.4 -2.5 3.8 -2.9 1.9 -0.2 4 -0.6 4.5 -0.9 0.5 -0.3 1.1 -0.1 1.3 0.6 0.3 0.7 -0.9 1.8 -2.6 2.4 -1.7 0.6 -3.8 1.4 -4.7 1.8 -1.1 0.5 -1.9 0.1 -2.3 -1z"/>
  <path d="M719 82 c-1 -0.6 -0.3 -1.3 2.5 -2.4 4.3 -1.8 7.1 -2 8 -0.6 0.3 0.6 -0.3 1 -1.5 1 -1.2 0 -3.3 0.6 -4.9 1.4 -1.6 0.9 -3.3 1.1 -4.1 0.6z"/>
  <path d="M664 80 c1.9 -1.3 3 -1.3 3 0 0 0.6 -1 1 -2.2 1 -1.9 0 -2 -0.2 -0.8 -1z"/>
  <path d="M745.6 79.6 c0.3 -0.8 1.2 -1.2 2 -0.9 2.1 0.8 1.7 2.3 -0.6 2.3 -1.3 0 -1.8 -0.5 -1.4 -1.4z"/>
  <path d="M26.7 78 c-1.4 -5.1 -0.8 -9.6 1.5 -11.6 1.8 -1.5 2 -1.6 0.9 -0.2 -0.7 1 -1.1 2.8 -0.8 4 0.3 1.3 0.2 4.1 -0.2 6.3 -0.6 3.6 -0.7 3.8 -1.4 1.5z"/>
  <path d="M651.2 78.9 c0.2 -0.6 0.7 -1 1.1 -1 0.4 0.1 1.4 0.1 2.2 0.1 0.8 0 1.5 0.5 1.5 1 0 0.6 -1.2 1 -2.6 1 -1.4 0 -2.4 -0.5 -2.2 -1.1z"/>
  <path d="M740 79 c1.9 -1.3 3 -1.3 3 0 0 0.6 -1 1 -2.2 1 -1.9 0 -2 -0.2 -0.8 -1z"/>
  <path d="M192 78.3 c0 -0.7 -0.6 -1.3 -1.4 -1.3 -1 0 -1.7 -1.6 -2.2 -4.7 -0.3 -2.7 -1.1 -5.6 -1.6 -6.5 -1.4 -2.9 1.3 -2.2 5 1.1 1.7 1.7 3.2 3.6 3.2 4.4 0 1.8 -2.9 8.6 -3 7z"/>
  <path d="M182.4 74.8 c0.3 -1 -0.4 -2.2 -2 -3.3 -2.7 -1.7 -2.4 -3.5 0.6 -3.5 2.2 0 3.5 4.4 2 6.8 -1 1.5 -1.1 1.5 -0.6 0z"/>
  <path d="M143.7 73.8 c-0.2 -0.7 0.5 -2.5 1.7 -3.9 1.2 -1.5 2.6 -3.4 3.1 -4.3 1.1 -1.8 7.5 -3.4 7.5 -1.8 0 1.8 -11.8 11.4 -12.3 10z"/>
  <path d="M683.8 73.3 c-1 -0.2 -1.8 -0.9 -1.8 -1.4 0 -0.5 -0.6 -0.9 -1.4 -0.9 -0.7 0 -1.9 -0.7 -2.6 -1.5 -0.7 -0.8 -0.9 -1.5 -0.5 -1.5 1.7 0 7.4 3.3 7.9 4.6 0.3 0.8 0.4 1.3 0.3 1.3 -0.1 -0.1 -1 -0.3 -1.9 -0.6z"/>
  <path d="M764.2 72.2 c-0.7 -0.2 -2.4 -1.5 -3.7 -2.8 -1.3 -1.3 -3.1 -2.4 -3.9 -2.4 -0.8 0 -1.7 -0.4 -2 -0.9 -0.3 -0.4 0.6 -0.6 1.9 -0.3 1.4 0.2 2.8 0.8 3.1 1.3 0.3 0.5 1.2 0.9 2 0.9 1.8 0 4.7 2.7 4.2 3.9 -0.2 0.4 -0.9 0.6 -1.6 0.3z"/>
  <path d="M627 71.4 c0 -0.4 8.1 -4.4 8.9 -4.4 0.3 0 0 0.5 -0.7 1.2 -1.1 1.1 -8.2 3.9 -8.2 3.2z"/>
  <path d="M711.4 68.5 c2.2 -1.7 4 -2 3.2 -0.6 -0.3 0.5 -1.6 1.1 -2.8 1.4 -2.2 0.6 -2.2 0.5 -0.4 -0.8z"/>
  <path d="M138 67.7 c0 -0.2 2.5 -2.4 5.5 -5.1 5.3 -4.6 6.6 -3.8 1.7 1.1 -2 2 -7.2 4.9 -7.2 4z"/>
  <path d="M44.2 64.8 c-0.7 -0.7 -1.2 -1.8 -1.2 -2.5 0 -2.4 -3.5 -3.3 -6.1 -1.6 -5.2 3.5 0.8 -1.5 7.3 -6.1 5.7 -4 6.6 -4.3 5.9 -2.4 -0.4 1.3 -1.7 2.5 -2.7 2.7 -4.1 0.7 -6 4.6 -2.9 5.7 1.9 0.8 7.5 -1.5 7.5 -3 0 -0.6 1.8 -1.9 3.9 -2.8 4.3 -2 5.1 -2.2 5.1 -0.9 0 1 -13.8 12.1 -15 12.1 -0.3 0 -1.1 -0.5 -1.8 -1.2z"/>
  <path d="M654.3 64.3 c2.6 -0.2 6.7 -0.2 9 0 2.3 0.2 0.2 0.3 -4.8 0.3 -4.9 0 -6.8 -0.1 -4.2 -0.3z"/>
  <path d="M159.5 59.1 c0 -3.8 4.5 -4.2 6.2 -0.6 1 2.3 1 2.5 -0.3 1.5 -1.1 -1 -1.9 -0.9 -3.7 0.3 -2.2 1.4 -2.3 1.4 -2.2 -1.2z"/>
  <path d="M171.5 54 c-4.6 -2.2 -14.7 -10.9 -12.7 -11 1.1 0 5.6 3 11.7 7.8 0.6 0.4 2.3 1.7 3.9 3 3.5 2.7 2.4 2.8 -2.9 0.2z"/>
  <path d="M153.8 51.5 c0.2 -1.4 0.8 -2.5 1.3 -2.5 1.4 0 1.1 2.6 -0.5 3.9 -1.1 0.9 -1.2 0.6 -0.8 -1.4z"/>
  <path d="M63.4 51.4 c-0.7 -0.3 -0.9 -1.4 -0.6 -2.6 0.3 -1.4 0.1 -1.9 -0.6 -1.4 -0.7 0.4 -1.2 0.2 -1.2 -0.4 0 -0.6 0.8 -0.9 1.8 -0.6 1.1 0.4 2.8 -0.2 4.1 -1.3 1.2 -1.1 2.9 -1.7 3.7 -1.4 0.8 0.3 1.4 0 1.4 -0.5 0 -1.3 3.6 -2.5 5 -1.7 0.6 0.4 -1.5 2.5 -4.7 4.8 -3.2 2.3 -5.9 4.5 -6.1 4.9 -0.4 0.9 -1.1 0.9 -2.8 0.2z"/>
  <path d="M142.7 42.8 c-5.5 -3.5 -6.5 -6.3 -1.7 -4.6 1.7 0.5 3.3 1.4 3.6 1.9 0.3 0.5 1.1 0.6 1.7 0.3 0.7 -0.4 0.9 -0.4 0.5 0.1 -0.4 0.4 -0.3 1.6 0.3 2.7 1.6 3 0.7 3 -4.4 -0.4z"/>
  <path d="M63 40.6 c0 -0.2 1.1 -1.1 2.5 -2 1.4 -0.9 2.5 -1.3 2.5 -0.8 0 0.5 -1.1 1.4 -2.5 2 -1.4 0.6 -2.5 1 -2.5 0.8z"/>
  <path d="M80.7 38.5 c-0.4 -0.9 -0.1 -1.8 0.9 -2.2 2.2 -0.8 3 0.5 1.2 2.3 -1.4 1.4 -1.6 1.4 -2.1 -0.1z"/>
  <path d="M148.7 37.4 c0.5 -1.4 -10.4 -9 -12.5 -8.6 -0.7 0.2 -2 -1.1 -3 -2.7 -0.9 -1.7 -2 -3.1 -2.4 -3.1 -0.5 0 -0.8 -0.7 -0.8 -1.5 0 -1 3.7 1.2 10.3 6.1 13.7 10.4 13.4 10 10.4 10.6 -1.8 0.3 -2.4 0.1 -2 -0.8z"/>
  <path d="M85.3 33.4 c-0.3 -2.8 0.1 -3.4 1.6 -3.4 1 0 3.2 -1.5 4.8 -3.3 2.5 -2.8 3.7 -3.4 7.1 -3.4 3.4 0 4 0.3 3.1 1.4 -0.6 0.7 -1.6 1.3 -2.1 1.3 -0.5 0 -1.5 0.6 -2.2 1.3 -0.8 0.6 -2.4 1.9 -3.6 2.7 -1.2 0.8 -2.8 2 -3.4 2.5 -5.5 4.7 -5.1 4.7 -5.3 0.9z"/>
  <path d="M130.7 34.3 c-1.1 -1.1 -0.8 -3.1 0.6 -3.6 0.8 -0.3 1.4 0.4 1.5 1.9 0.2 2.3 -0.8 3.1 -2.1 1.7z"/>
  <path d="M125.9 30.3 c-2.5 -1.8 -3.9 -3.3 -3.9 -4.5 0 -1.6 1.9 -0.7 2.5 1.1 0.4 1.2 1.2 1.8 2 1.4 0.8 -0.3 1.8 0.2 2.1 1.1 1 2.5 0.1 2.8 -2.7 0.9z"/>
  <path d="M77.1 29.7 c0.2 -0.2 4 -3 8.4 -6.2 l8 -5.8 -6.2 6.1 c-3.9 4 -6.9 6.2 -8.4 6.2 -1.2 0 -2 -0.2 -1.8 -0.3z"/>
  <path d="M118.5 25.1 c-0.6 -1.1 0.9 -2.3 1.9 -1.4 0.9 0.9 0.7 2.3 -0.3 2.3 -0.6 0 -1.2 -0.4 -1.6 -0.9z"/>
  <path d="M114 20.9 c-1.5 -1.1 -3.4 -1.7 -4.7 -1.4 -3.6 0.8 -5 -0.3 -4.5 -3.5 0.4 -2.8 0.7 -3 4.8 -3 3.2 0 4.4 -0.4 4.4 -1.5 0 -2 2 -1.9 4.9 0.1 l2.3 1.7 -3.1 1.9 c-3.3 2.1 -3.8 3.7 -1.9 5.6 2 2 0.4 2.1 -2.2 0.1z"/>
  <path d="M96 15.6 c0 -0.2 1.6 -1.6 3.5 -3 1.9 -1.5 3.2 -2.1 3 -1.4 -0.5 1.2 -6.5 5.2 -6.5 4.4z"/>
  <path d="M108.8 7.3 c1.2 -0.2 3 -0.2 4 0 0.9 0.3 -0.1 0.5 -2.3 0.4 -2.2 0 -3 -0.2 -1.7 -0.4z"/>
 </g>
</svg>