<?xml version="1.0" encoding="utf-8"?>
<!DOCTYPE svg PUBLIC "-//W3C//DTD SVG 1.0//EN" "http://www.w3.org/TR/2001/REC-SVG-20010904/DTD/svg10.dtd">
<svg version="1.0" xmlns="http://www.w3.org/2000/svg" width="1024px" height="1024px" viewBox="0 0 1024 1024" preserveAspectRatio="xMidYMid meet">
 <g fill="#feffff">
  <path d="M0 512 l0 -512 512 0 512 0 0 512 0 512 -512 0 -512 0 0 -512z m369.80 144.45 c3.60 -1.35 6.30 -3.80 8.50 -7.75 1.90 -3.40 1.80 -3.10 8.90 -25.95 2.70 -8.50 6.30 -20 8.05 -25.50 1.70 -5.50 4.10 -13.05 5.25 -16.75 1.15 -3.70 2.95 -9.45 4 -12.75 1.05 -3.30 2.85 -9.05 4 -12.75 1.80 -5.95 3.05 -9.95 6.95 -22.25 0.55 -1.65 2.10 -6.50 3.45 -10.75 1.40 -4.25 3.25 -10.10 4.10 -13 0.90 -2.90 2.15 -6.80 2.80 -8.75 0.65 -1.90 2.20 -6.85 3.45 -11 2.60 -8.25 4.20 -13.35 7.20 -22.75 7.95 -24.80 9.60 -30.75 9.30 -32.80 -0.40 -2.70 -3 -6.95 -5.80 -9.60 -2.60 -2.40 -13.40 -10.65 -30.25 -23.10 -6.45 -4.80 -13.55 -10.10 -15.70 -11.75 -2.15 -1.65 -9.90 -7.45 -17.15 -12.90 -7.25 -5.45 -13.70 -10.30 -14.40 -10.85 -3.05 -2.45 -20.65 -15.95 -24.45 -18.75 -1.85 -1.35 -4.70 -3.50 -6.30 -4.70 -2.80 -2.10 -6.45 -4.85 -34.20 -25.50 -20.40 -15.15 -23.70 -17.65 -28.85 -21.85 -8.70 -7.05 -14.45 -7.35 -22.75 -1.05 -2.30 1.70 -4.45 3.40 -4.80 3.75 -0.60 0.55 -23.75 17.90 -37.85 28.35 -3 2.25 -13.15 9.80 -22.50 16.75 -9.35 6.95 -19.15 14.25 -21.75 16.15 -2.60 1.95 -6.05 4.50 -7.60 5.65 -9.65 7.25 -39.45 29.70 -43.50 32.75 -2.70 2.05 -5.40 4.05 -6 4.50 -7.30 5.30 -27.70 21.05 -29.50 22.75 -4.70 4.45 -6.05 9.60 -4 15.50 0.60 1.60 2 6 3.15 9.70 2.20 7.25 4.45 14.35 6.85 22 0.80 2.60 2.10 6.80 2.85 9.25 1.80 6.05 4.60 15.25 6 19.50 0.65 1.95 1.75 5.55 2.50 8 0.75 2.50 1.55 5.05 1.75 5.75 0.55 1.55 7.50 24.10 9.25 30 0.35 1.25 1.25 4.05 1.95 6.25 0.70 2.20 2.30 7.40 3.55 11.50 1.30 4.15 3.35 10.75 4.60 14.75 1.25 4 2.65 8.60 3.15 10.25 0.50 1.65 2.10 6.70 3.50 11.25 1.40 4.55 3 9.60 3.50 11.25 1.85 6.10 7.60 24.70 9.75 31.50 3.25 10.30 5.90 14 11.40 15.70 3.05 0.95 5.25 1 113.95 1 l110.85 0.05 2.85 -1.05z m274.55 0.55 c12.40 -1 17.80 -2.10 28.15 -5.75 3.05 -1.10 8 -3.55 10.45 -5.25 l1.05 -0.75 -1.45 -3.75 c-0.80 -2.05 -2.05 -5.30 -2.80 -7.25 -0.75 -1.90 -1.65 -4.20 -2.05 -5.10 -0.40 -0.85 -0.70 -1.80 -0.70 -2.15 0 -0.75 -0.40 -0.65 -6.50 1.85 -2.60 1.10 -6.30 2.35 -8.25 2.75 -1.90 0.45 -4.75 1.10 -6.25 1.45 -3.95 0.95 -26.05 0.95 -30.75 0 -19.05 -3.80 -32.15 -14.20 -38.70 -30.80 -5.80 -14.60 -5.30 -35.80 1.20 -49.45 3.70 -7.80 9.25 -14.55 15.40 -18.65 7.75 -5.15 14.65 -7.75 24.35 -9.15 5.65 -0.85 20.90 -0.40 26 0.75 7 1.55 16.05 5.25 21.60 8.95 1.25 0.85 1.35 0.85 1.80 -0.05 0.25 -0.50 0.75 -2 1.10 -3.40 0.35 -1.35 1.50 -5.60 2.55 -9.40 1.10 -3.80 1.95 -7 1.95 -7.10 0 -0.90 -9.95 -6.10 -14.20 -7.45 -13 -4.15 -18.75 -5 -32.80 -5 -11.05 0.05 -12.15 0.15 -22.05 2.15 -4 0.85 -11.50 3.60 -16.70 6.10 -11.60 5.65 -21.50 14.35 -28.95 25.60 -13.65 20.45 -16.90 45.05 -9.20 69.35 4.95 15.60 14.45 28.35 28.15 37.75 7.50 5.15 18.35 9.80 26.90 11.45 13.25 2.65 20.05 3.15 30.70 2.30z m122.40 0 c8.55 -0.65 15.25 -1.90 22.50 -4.30 6.50 -2.15 9.25 -3.45 14.15 -6.85 11.10 -7.65 17.10 -19.20 17.25 -33.10 0.05 -8.05 -1.80 -14.30 -6.20 -21.10 -3.70 -5.60 -12.40 -12.55 -18.95 -15.05 -6.95 -2.60 -9.80 -3.60 -10.45 -3.60 -0.35 0 -1.35 -0.30 -2.20 -0.70 -0.90 -0.35 -2.60 -0.95 -3.85 -1.25 -2.60 -0.70 -10.55 -3.10 -21 -6.40 -14.60 -4.55 -20.55 -8.50 -22.75 -15.20 -1.15 -3.40 -0.90 -11.90 0.45 -14.60 2.20 -4.45 7.50 -8.20 14.55 -10.15 4 -1.10 17.75 -1.50 24.75 -0.70 11.25 1.30 22.50 4.10 32.90 8.20 l5.60 2.20 0 -11.90 0 -11.90 -3.35 -1.55 c-19.80 -9.30 -52.05 -11.30 -72.15 -4.55 -19.30 6.50 -30.15 20.05 -31.35 39 -0.45 7.55 1.95 16.05 6.30 22.45 2.45 3.50 6.90 7.85 10.80 10.45 3.95 2.65 7.95 4.35 15.75 6.80 2.35 0.75 5.25 1.65 6.50 2.05 1.25 0.40 5.30 1.50 9 2.50 14.80 3.95 21.40 6.15 27.30 9.05 7.25 3.60 10.50 8.25 11.05 15.90 0.40 5.95 -0.90 10.20 -4.40 14 -3.10 3.40 -4.65 4.35 -9.65 6.05 -15.55 5.20 -43.30 2.55 -62.95 -6.05 -2.15 -0.95 -4.10 -1.70 -4.30 -1.70 -0.20 0 -1 2.30 -1.80 5.15 -2.95 10.90 -4.25 15.60 -4.25 15.70 0 0 1.75 0.80 3.90 1.65 11.70 4.90 23.90 7.85 38.35 9.25 8.50 0.80 10.20 0.85 18.50 0.25z m113.65 -77.10 l-0.15 -75.15 -12.35 -0.15 -12.40 -0.10 0 74.95 0 75 2.40 0.20 c1.30 0.10 6.90 0.20 12.50 0.25 l10.10 0.10 -0.10 -75.10z m-352.90 -0.40 l0 -75 -12.65 0 -12.65 0 0.10 66.90 c0.05 36.75 0.10 70.50 0.15 75 l0.05 8.10 12.50 0 12.50 0 0 -75z m156.25 -106 c4.70 -1.05 13.40 -4.90 16.15 -7.25 1 -0.85 2.10 -1.25 3.30 -1.25 l1.80 0 0 4 0 4 10.75 0 10.75 0 0 -32.35 c0 -29.65 -0.10 -32.85 -0.95 -37.75 -2.50 -13.95 -11.40 -22.35 -28.05 -26.50 -3.50 -0.90 -5.85 -1.10 -13 -1.10 -8.20 -0.05 -10.65 0.20 -18.25 1.80 -4.45 0.90 -10.40 2.75 -13.60 4.20 l-3.15 1.40 0 7.30 0 7.35 2.90 -0.90 c8.65 -2.65 12.05 -3.15 21.60 -3.15 10.20 0 12.30 0.35 18.60 3.30 6.30 2.90 10.30 8.75 10.75 15.85 l0.30 4.05 -8.70 0 c-15.90 0 -30.80 2.55 -39.20 6.70 -12.10 6 -18.10 17.30 -15.60 29.35 2.70 13 11.40 20.30 26.35 22.15 3.45 0.40 12.85 -0.25 17.25 -1.20z m-157.15 -55.35 l0.15 -54.90 11.50 -0.05 c6.35 -0.05 14.80 -0.10 18.90 -0.15 l7.35 -0.05 0 -10.75 0 -10.75 -50.25 0 -50.25 0 0 10.75 0 10.75 5.15 0.05 c2.80 0.05 11.40 0.10 19.10 0.15 l14 0.05 0.15 54.90 0.10 54.85 12 0 12 0 0.10 -54.85z m69.40 30.50 c0 -27.10 0.30 -31.65 2.45 -37.85 3.90 -11.15 11.80 -16.25 25.45 -16.30 l5.10 0 0 -9.50 0 -9.50 -1.25 0 c-2.80 0 -10 1.75 -13.95 3.35 -5.15 2.15 -12.75 8.15 -13.60 10.75 -0.20 0.65 -0.75 0.90 -2.25 0.90 l-1.95 0 0 -6.50 0 -6.50 -9.95 0 -9.90 0 -0.35 2.65 c-0.15 1.40 -0.30 22.90 -0.30 47.75 l0 45.10 10.25 0 10.25 0 0 -24.35z m175.50 -23.40 l0 -47.75 -10.50 0 -10.50 0 0 47.75 0 47.75 10.50 0 10.50 0 0 -47.75z m45.55 34.40 c0.05 -7.40 0.05 -18.45 0.05 -24.55 -0.10 -17.20 0.50 -26.25 1.95 -29.60 1.55 -3.75 3.55 -6.10 7.05 -8.45 4.75 -3.20 8.65 -4.30 15.15 -4.30 5.50 0 5.60 0.05 9.50 2 4.55 2.25 6.50 4.45 8.25 9.10 1.65 4.40 2 11.40 2 41.80 l0 27.35 10.55 0 10.50 0 -0.15 -35.35 c-0.20 -35.10 -0.20 -35.45 -1.35 -39.15 -3.40 -11.35 -10.20 -18.40 -21.05 -21.90 -3.05 -0.95 -4.90 -1.20 -9.75 -1.30 -3.70 0 -6.85 0.20 -8.25 0.60 -9.80 2.90 -13.65 4.55 -19.15 8.30 -4.25 2.90 -6.55 3.15 -7.05 0.75 -0.15 -0.85 -0.30 -2.90 -0.30 -4.50 l0 -2.95 -9.50 0 -9.50 0 0 47.75 0 47.75 10.50 0 10.50 0 0.05 -13.35z m-52.85 -96.90 c2.85 -0.45 6.50 -3.50 8.20 -6.95 1.55 -3.10 1.60 -7.95 0.10 -11.10 -1.35 -2.80 -4.80 -5.45 -8.30 -6.50 -2.40 -0.70 -3 -0.70 -5.65 0 -3.75 0.95 -5.80 2.30 -8.05 5.20 -1.70 2.20 -1.75 2.40 -1.75 6.80 0 3.30 0.25 4.95 0.85 6.05 1.05 1.95 3.70 4.65 5.55 5.55 1.55 0.85 5.25 1.70 6.15 1.45 0.30 -0.10 1.60 -0.35 2.90 -0.50z"/>
  <path d="M149.50 635.40 c-0.30 -0.65 -1.30 -3.80 -2.25 -7 -0.95 -3.25 -2.55 -8.55 -3.55 -11.75 -0.95 -3.25 -2.40 -8.05 -3.20 -10.65 -2.60 -8.65 -6.40 -21.25 -6.65 -22 -0.25 -0.70 -1.95 -6.10 -6.10 -19.75 -1 -3.30 -2.95 -9.50 -4.30 -13.75 -1.30 -4.25 -3.30 -10.80 -4.40 -14.50 -1.10 -3.70 -3.15 -10.45 -4.55 -15 -1.40 -4.55 -3.35 -10.85 -4.30 -14 -0.95 -3.15 -2.85 -9.35 -4.25 -13.75 -1.35 -4.40 -2.65 -8.65 -2.90 -9.50 -1.45 -4.90 -4.15 -13.70 -4.55 -14.75 -0.25 -0.70 -1 -3.25 -1.75 -5.75 -0.70 -2.45 -1.50 -5.05 -1.75 -5.75 -0.20 -0.70 -1.10 -3.50 -1.90 -6.25 -0.85 -2.75 -2 -6.50 -2.55 -8.35 -0.60 -1.85 -1.05 -4.25 -1.05 -5.30 l0 -1.90 14.90 -11.20 c30.50 -22.95 74.90 -56.30 76.10 -57.10 1.90 -1.30 31.80 -23.70 33.50 -25.05 0.40 -0.35 2.75 -2.10 5.15 -3.85 2.45 -1.80 7.30 -5.40 10.80 -8 21.55 -16 24.45 -18 26 -18 2.25 0 6.90 3.40 69.05 49.95 33 24.70 34.25 25.70 34.40 27.40 0.15 1.50 -0.10 2 -1.75 3.40 -2.20 1.95 -5.30 4.85 -20.65 19.70 -6.20 5.95 -13.95 13.40 -17.25 16.55 -3.30 3.15 -8.50 8.20 -11.50 11.20 -3.05 3.05 -20.45 20.40 -38.65 38.55 -18.15 18.10 -33 33 -32.95 33.10 0.30 0.25 12.50 -2.40 13.55 -2.95 0.90 -0.50 10.35 -8.25 22.55 -18.55 1.95 -1.60 4.60 -3.90 6 -5 1.35 -1.15 3.50 -3 4.75 -4.10 2 -1.70 5.40 -4.55 13.45 -11.10 0.95 -0.75 4.10 -3.40 7 -5.80 2.90 -2.45 7.65 -6.40 10.50 -8.75 2.85 -2.40 6.95 -5.80 9.05 -7.60 2.10 -1.80 5.60 -4.70 7.75 -6.50 6.80 -5.70 26.25 -22.50 33 -28.50 10.35 -9.20 11.40 -10 13.35 -10 1.35 0 2.75 0.80 6.85 3.90 2.85 2.10 6.45 4.75 8 5.85 1.55 1.10 6.30 4.60 10.55 7.80 4.25 3.15 10.30 7.65 13.40 9.95 3.55 2.65 5.75 4.60 5.90 5.35 0.45 1.65 0.15 2.80 -2.75 12.40 -1.45 4.70 -3.50 11.45 -4.55 15 -1.05 3.60 -2.25 7.50 -2.65 8.75 -0.40 1.25 -1.45 4.60 -2.35 7.50 -2.25 7.45 -4.75 15.65 -7.25 23.75 -3.65 11.80 -8.10 26.25 -9.50 31 -1.45 5 -4.55 15.10 -6.25 20.50 -0.60 1.95 -1.30 4.20 -1.50 5 -0.20 0.85 -1.55 5.20 -3 9.75 -1.40 4.55 -4 13.10 -5.80 19 -1.80 5.90 -3.45 11.30 -3.70 12 -0.25 0.70 -1.15 3.60 -2 6.50 -0.85 2.90 -2.80 9.20 -4.30 14 -1.50 4.80 -3.10 9.90 -3.55 11.25 -0.40 1.40 -1 2.80 -1.25 3.15 -0.40 0.45 -22.25 0.60 -106.20 0.60 l-105.70 0 -0.50 -1.10z m110.75 -53.65 c8.05 -1 8.85 -1.15 13.75 -2.60 8.55 -2.55 19 -7.15 23.25 -10.25 7 -5.10 9.20 -6.90 14.55 -12.10 7.75 -7.50 12.55 -13.95 17.20 -23.20 5.10 -10.20 7.20 -17.50 9 -31.75 0.95 -7.30 0.35 -15.75 -1.80 -25.85 -0.95 -4.55 -4.30 -15 -4.80 -15 -0.20 0 -3.15 2.50 -6.65 5.55 -4.35 3.85 -6.20 5.80 -6.05 6.40 0.15 0.45 0.60 2.50 1 4.55 3.05 15.75 2.15 31.10 -2.55 42.95 -5.40 13.70 -12.30 22.80 -23.75 31.30 -11.70 8.70 -24.50 12.75 -40.25 12.75 -11.20 0 -19.45 -1.80 -28.85 -6.25 -11.60 -5.50 -20.25 -13 -27.15 -23.60 -5.80 -8.90 -8.85 -16.65 -10.65 -26.90 -2.20 -12.40 -0.80 -30.15 2.95 -38.50 0.50 -1.10 1.15 -2.80 1.50 -3.80 0.95 -3 5.50 -10.50 9.05 -14.95 4.30 -5.35 10.65 -10.95 16.35 -14.40 4.05 -2.45 10.15 -5.60 10.85 -5.60 0.20 0 1.25 -0.45 2.45 -0.95 4.90 -2.25 9.75 -3.10 18.85 -3.40 12.20 -0.35 20.60 0.70 28.90 3.55 3.60 1.25 9.25 3.90 10.55 4.95 0.65 0.55 2.20 1.50 3.45 2.15 0.45 0.20 2.60 -1.55 6.15 -5.10 3 -3 5.45 -5.60 5.45 -5.80 0 -1.25 -11.35 -8.10 -17.65 -10.65 -11.55 -4.65 -27 -7.25 -37.55 -6.25 -27.55 2.55 -46.70 13.25 -64.10 35.75 -0.85 1.10 -2.45 3.60 -3.55 5.50 -9.05 15.65 -12.70 29.90 -12 47 0.95 22.75 9.75 42.85 25.95 59.30 12.60 12.85 28.65 21.55 44.40 24.15 11.60 1.90 13.85 2.05 21.75 1.05z"/>
  <path d="M668.25 458.05 c-5.95 -2.85 -7.75 -5.80 -7.75 -12.80 0 -3.95 0.20 -4.80 1.40 -7 1.10 -2.05 1.95 -2.80 4.45 -4.15 1.75 -0.90 4.70 -2 6.60 -2.40 4.20 -0.85 20.05 -2.20 26.20 -2.20 l4.35 0 0 7.80 c0 4.25 -0.25 8.75 -0.55 9.95 -0.80 3.25 -5.05 7.70 -9 9.50 -5.20 2.30 -7.60 2.75 -15.45 2.70 -6.90 0 -7.40 -0.05 -10.25 -1.40z"/>
 </g>
 <g fill="#17a5d3">
  <path d="M140.65 657.95 c-5.50 -1.70 -8.15 -5.40 -11.40 -15.70 -2.15 -6.80 -7.90 -25.40 -9.75 -31.50 -0.50 -1.65 -2.10 -6.70 -3.50 -11.25 -1.40 -4.55 -3 -9.60 -3.50 -11.25 -0.50 -1.65 -1.90 -6.25 -3.15 -10.25 -1.25 -4 -3.30 -10.60 -4.60 -14.75 -1.25 -4.10 -2.85 -9.30 -3.55 -11.50 -0.70 -2.20 -1.60 -5 -1.95 -6.25 -1.75 -5.90 -8.70 -28.45 -9.25 -30 -0.20 -0.70 -1 -3.25 -1.75 -5.75 -0.75 -2.45 -1.85 -6.05 -2.50 -8 -1.40 -4.25 -4.20 -13.45 -6 -19.50 -0.75 -2.45 -2.05 -6.65 -2.85 -9.25 -2.40 -7.65 -4.65 -14.75 -6.85 -22 -1.15 -3.70 -2.60 -8.10 -3.15 -9.75 -1.65 -4.55 -1.55 -9.70 0.25 -13.40 0.80 -1.55 2.50 -3.85 3.75 -5.05 1.80 -1.70 22.20 -17.45 29.50 -22.75 0.60 -0.45 3.30 -2.45 6 -4.50 4.05 -3.05 33.85 -25.50 43.50 -32.75 1.55 -1.15 5 -3.70 7.60 -5.65 2.60 -1.90 12.40 -9.20 21.75 -16.15 9.35 -6.95 19.50 -14.50 22.50 -16.75 14.10 -10.45 37.25 -27.80 37.85 -28.35 3.15 -2.95 9.30 -7 11.75 -7.70 6.30 -1.85 12.35 -0.20 18.80 5 5.15 4.20 8.45 6.70 28.85 21.85 27.75 20.65 31.40 23.40 34.20 25.50 1.60 1.20 4.45 3.35 6.30 4.70 3.80 2.80 21.40 16.30 24.45 18.75 0.70 0.55 7.15 5.40 14.40 10.85 7.25 5.45 15 11.25 17.15 12.90 2.15 1.65 9.25 6.95 15.70 11.75 18.50 13.70 27.85 20.85 30.55 23.50 3.55 3.40 5.35 6.85 5.60 10.95 0.25 3.45 -0.65 6.65 -9.40 34.05 -3 9.40 -4.60 14.50 -7.20 22.75 -1.25 4.15 -2.80 9.10 -3.45 11 -0.65 1.95 -1.90 5.85 -2.80 8.75 -0.85 2.90 -2.70 8.75 -4.10 13 -1.35 4.25 -2.90 9.10 -3.45 10.75 -3.90 12.30 -5.15 16.30 -6.95 22.25 -1.15 3.70 -2.95 9.45 -4 12.75 -1.05 3.30 -2.85 9.05 -4 12.75 -1.15 3.70 -3.55 11.25 -5.25 16.75 -1.75 5.50 -5.35 17 -8.05 25.50 -7.10 22.85 -7 22.55 -8.90 25.95 -2.20 3.95 -4.90 6.40 -8.50 7.75 l-2.85 1.05 -112.35 -0.05 c-110.20 0 -112.40 0 -115.45 -1z m219.75 -23.55 c0.25 -0.35 0.85 -1.75 1.25 -3.15 0.45 -1.35 2.05 -6.45 3.55 -11.25 1.50 -4.80 3.45 -11.10 4.30 -14 0.85 -2.90 1.75 -5.80 2 -6.50 0.25 -0.70 1.90 -6.10 3.70 -12 1.80 -5.90 4.40 -14.45 5.80 -19 1.45 -4.55 2.80 -8.90 3 -9.75 0.20 -0.80 0.90 -3.05 1.50 -5 1.70 -5.40 4.80 -15.50 6.25 -20.50 1.40 -4.75 5.85 -19.20 9.50 -31 2.50 -8.10 5 -16.30 7.25 -23.75 0.90 -2.90 1.95 -6.25 2.35 -7.50 0.40 -1.25 1.60 -5.15 2.65 -8.75 3.80 -12.90 7 -23.35 7.25 -23.75 0.55 -0.90 -0.55 -2.10 -5.90 -6.05 -3.10 -2.30 -9.10 -6.75 -13.35 -9.90 -4.25 -3.20 -9 -6.70 -10.55 -7.80 -1.60 -1.10 -4.95 -3.60 -7.50 -5.50 -2.60 -1.95 -5 -3.70 -5.35 -3.95 -0.70 -0.45 -2.75 1.15 -12.35 9.70 -6.75 6 -26.20 22.80 -33 28.50 -2.15 1.80 -5.65 4.70 -7.75 6.50 -2.10 1.80 -6.20 5.20 -9.05 7.60 -2.85 2.35 -7.60 6.30 -10.50 8.75 -2.90 2.40 -6.05 5.05 -7 5.80 -8.05 6.55 -11.45 9.40 -13.45 11.10 -1.25 1.10 -3.40 2.95 -4.75 4.10 -1.40 1.10 -4.05 3.40 -6 5 -12.20 10.30 -21.65 18.05 -22.55 18.55 -0.60 0.30 -3.95 1.15 -7.50 1.85 -3.55 0.75 -7.70 1.60 -9.20 2 -1.50 0.35 -2.95 0.70 -3.25 0.75 -0.25 0.05 -0.75 0.10 -1 0.05 -0.30 0 15.45 -15.95 34.95 -35.40 19.55 -19.50 38 -37.90 41.05 -40.95 3 -3 8.20 -8.05 11.50 -11.20 3.30 -3.15 11.05 -10.60 17.25 -16.55 15.45 -14.90 18.45 -17.75 20.70 -19.75 1.20 -1 1.80 -1.90 1.50 -2.10 -1.95 -1.75 -85.30 -63.85 -94.60 -70.55 l-7.15 -5.10 -9.05 6.65 c-4.95 3.65 -11.90 8.80 -15.45 11.40 -3.50 2.60 -8.35 6.20 -10.80 8 -2.40 1.75 -4.75 3.50 -5.15 3.85 -1.70 1.35 -31.60 23.75 -33.50 25.05 -0.70 0.45 -14.75 11 -31.25 23.35 -46 34.55 -58.95 44.30 -59.45 44.80 -0.25 0.25 0 1.90 0.65 4.05 0.60 2 1.80 5.90 2.65 8.65 0.80 2.75 1.70 5.55 1.90 6.25 0.25 0.70 1.05 3.30 1.75 5.75 0.75 2.50 1.50 5.05 1.75 5.75 0.40 1.05 3.10 9.85 4.55 14.75 0.25 0.85 1.55 5.10 2.90 9.50 1.40 4.40 3.30 10.60 4.25 13.75 0.95 3.15 2.90 9.45 4.30 14 1.40 4.55 3.45 11.30 4.55 15 1.10 3.70 3.10 10.25 4.40 14.50 1.35 4.25 3.30 10.45 4.30 13.75 4.15 13.65 5.85 19.05 6.10 19.75 0.25 0.75 4.05 13.35 6.65 22 0.80 2.60 2.25 7.40 3.20 10.65 1 3.20 2.60 8.50 3.55 11.75 0.95 3.20 1.95 6.35 2.25 7 l0.50 1.10 104.20 0 c82.75 0 104.30 -0.15 104.70 -0.60z"/>
  <path d="M626.50 658.45 c-13.90 -1.50 -22.75 -3.85 -32 -8.45 -12.15 -6.05 -21.70 -14.20 -28.45 -24.30 -12.20 -18.25 -16.30 -44.25 -10.50 -66.85 5.60 -22.05 20.15 -40.30 39.70 -49.80 5.20 -2.50 12.70 -5.25 16.70 -6.10 10.15 -2.05 10.85 -2.15 23.55 -2.15 15.65 -0.05 20.95 0.75 34.35 5 3.30 1.05 8.65 3.65 11.95 5.85 l3 2 -2.45 8.80 c-2.30 8.15 -4.10 14.40 -4.60 15.90 -0.15 0.45 -1.30 -0.10 -3.35 -1.55 -6.05 -4.20 -14.70 -7.90 -22.40 -9.55 -2.05 -0.45 -7.10 -0.95 -11.20 -1.10 -14.65 -0.55 -25.20 2.20 -36.15 9.50 -8.15 5.45 -15.20 15.55 -18.15 25.95 -6.10 21.40 -0.35 45 14.05 57.45 7.50 6.50 14.15 9.80 24.95 12.30 4.75 1.10 24.65 1.25 29 0.25 1.50 -0.40 4.20 -1 6 -1.40 3.85 -0.90 10.05 -3.20 14.15 -5.25 l2.90 -1.50 0.75 1.90 c0.40 1.05 0.95 2.35 1.20 2.90 0.20 0.55 1 2.60 1.75 4.50 1.30 3.40 3.55 9.05 4.65 11.85 0.50 1.25 0.40 1.50 -1.05 2.55 -6 4.50 -17.80 8.65 -29.10 10.30 -9.65 1.40 -21.70 1.85 -29.25 1z"/>
  <path d="M746.75 658.30 c-8.35 -0.85 -15.10 -2.05 -22 -3.80 -10.10 -2.65 -20 -6.50 -20.50 -8 -0.15 -0.50 0.15 -2.35 0.70 -4.10 0.50 -1.70 2 -6.95 3.30 -11.65 1.30 -4.65 2.40 -8.55 2.45 -8.60 0.05 -0.10 1 0.30 2.10 0.80 13.95 6.65 32.40 11.05 46.20 11.05 8.90 -0.05 19.90 -2.30 24.35 -5.05 0.85 -0.55 2.75 -2.25 4.10 -3.75 4.45 -4.85 5.65 -11.70 3.10 -17.45 -3.55 -7.90 -10.55 -11.40 -37.05 -18.50 -3.70 -1 -7.75 -2.10 -9 -2.50 -1.25 -0.40 -4.15 -1.30 -6.50 -2.05 -7.80 -2.45 -11.80 -4.15 -15.75 -6.80 -6.05 -4.05 -11.30 -10.10 -13.90 -15.95 -0.65 -1.50 -1.70 -4.85 -2.35 -7.45 -2.10 -8.80 -0.70 -21.10 3.35 -29.20 5.35 -10.75 14.05 -17.90 27.15 -22.30 7.90 -2.65 18.20 -4 31.05 -4 16.75 0 32.30 3 44.10 8.55 l3.35 1.55 0 13.95 c0 11.10 -0.15 13.95 -0.65 13.95 -0.35 0 -0.85 -0.20 -1.10 -0.45 -0.80 -0.70 -13.05 -5.30 -18 -6.75 -11.40 -3.30 -23.85 -5.05 -33.75 -4.65 -10.05 0.35 -16.70 2.60 -21.10 7.05 -3.05 3.10 -4.05 5.35 -4.30 9.65 -0.60 10.30 5.30 15.65 23.40 21.30 10.45 3.30 18.40 5.70 21 6.40 1.25 0.30 2.95 0.90 3.85 1.25 0.85 0.40 1.85 0.70 2.20 0.70 0.65 0 3.50 1 10.45 3.60 1.50 0.60 4.55 2.20 6.75 3.65 7.70 4.95 12.65 10.60 15.55 17.80 2.55 6.30 2.90 8.20 2.85 16.20 -0.05 8.95 -0.95 13.15 -4.40 20.05 -3.55 7.25 -10.70 14.15 -19 18.35 -3.20 1.60 -12.55 4.65 -17.30 5.65 -9.10 1.90 -24.30 2.55 -34.70 1.50z"/>
  <path d="M510.50 656.10 l-9.75 -0.10 -0.05 -76.50 -0.10 -76.50 13.40 0 c7.40 0 13.75 -0.15 14.20 -0.30 0.75 -0.30 0.80 6.65 0.80 76.45 l0 76.80 -4.35 0.15 c-2.45 0.10 -8.80 0.10 -14.15 0z"/>
  <path d="M854.30 656.10 c-0.15 -0.15 -0.30 -34.65 -0.30 -76.70 l0 -76.40 13.45 0 c7.40 0 13.75 0.10 14.15 0.25 0.55 0.20 0.65 13.40 0.55 76.65 l-0.15 76.35 -13.70 0.05 c-7.55 0.05 -13.85 -0.05 -14 -0.20z"/>
 </g>
 <g fill="#28c99a">
  <path d="M245.25 583.45 c-10.45 -1.30 -15.60 -2.55 -23.75 -5.80 -19.65 -7.75 -37.80 -25.25 -46.75 -45.15 -5.40 -12.05 -7.65 -21.80 -8.10 -35.25 -0.60 -19.05 2.70 -32.45 12 -48.50 3.70 -6.40 11.60 -15.70 17.70 -20.90 14.95 -12.65 29.50 -18.50 50.50 -20.40 15.65 -1.35 35.25 2.85 48.30 10.35 5.55 3.20 10.85 7.10 10.85 8 0 0.40 -12.95 13.80 -13.65 14.10 -0.20 0.10 -1.25 -0.50 -2.30 -1.35 -1.05 -0.85 -2.10 -1.55 -2.35 -1.55 -0.20 0 -0.75 -0.30 -1.15 -0.70 -1.30 -1.15 -6.75 -3.75 -10.65 -5.10 -13.95 -4.80 -34.40 -4.90 -44.75 -0.15 -1.20 0.50 -2.25 0.95 -2.45 0.95 -0.70 0 -6.80 3.15 -10.85 5.60 -5.70 3.45 -12.05 9.05 -16.35 14.40 -3.55 4.45 -8.10 11.95 -9.05 14.95 -0.35 1 -1 2.70 -1.50 3.80 -2.30 5.15 -3.95 14.65 -3.95 23.15 0 14.60 3.70 27 11.65 39.25 6.90 10.60 15.55 18.10 27.15 23.60 21.65 10.30 46.85 7.80 66.10 -6.50 11.45 -8.50 18.35 -17.60 23.75 -31.30 3.70 -9.30 5.15 -21.55 3.85 -31.80 -0.75 -5.80 -2 -12.20 -2.80 -14.05 l-0.65 -1.60 6.85 -6.05 c9.15 -8.05 9.20 -8.05 9.60 -7.60 0.65 0.70 4.40 12.70 5.20 16.65 3.25 15.50 2.90 30.55 -1.10 44.75 -4.30 15.50 -11.70 27.85 -23.30 39.05 -5.35 5.20 -7.55 7 -14.55 12.10 -5.40 3.95 -21.60 10.50 -29.25 11.80 -9.65 1.65 -17.65 2.05 -24.25 1.25z"/>
  <path d="M665 476.20 c-12.20 -1.50 -20.30 -6.70 -24.35 -15.65 -2.95 -6.50 -3.50 -17.25 -1.20 -23.15 2.60 -6.65 7.85 -12.25 14.80 -15.70 8.40 -4.15 23.30 -6.70 39.20 -6.70 l8.70 0 -0.35 -2.60 c-0.75 -5.90 -5.10 -11.75 -10.70 -14.30 -9.10 -4.20 -18.90 -4.65 -32.70 -1.40 -2.95 0.70 -6.30 1.70 -7.50 2.30 -1.15 0.55 -2.25 1 -2.50 1 -0.20 0 -0.40 -4.25 -0.40 -9.40 l0 -9.40 3.15 -1.40 c3.20 -1.45 9.15 -3.30 13.60 -4.20 7.80 -1.65 10.05 -1.85 19.75 -1.80 8.75 0 10.90 0.15 14.50 1.05 16.65 4.20 25.55 12.60 28.05 26.55 0.85 4.90 0.95 8.15 0.95 39.25 l0 33.85 -12.50 0 -12.45 0 0.30 -4 c0.15 -2.20 0.15 -4 -0.10 -4 -0.20 0 -1 0.55 -1.85 1.25 -2.75 2.30 -11.45 6.20 -16.15 7.25 -4.40 1 -16.30 1.70 -20.25 1.20z m21.80 -18.90 c5.15 -1.35 8.65 -3.35 11.45 -6.40 3.30 -3.65 3.75 -5.35 3.75 -13.60 l0 -6.30 -2.85 0 c-4.90 0 -21 1.45 -24.70 2.20 -1.90 0.40 -4.85 1.50 -6.60 2.40 -4.05 2.15 -5.85 5.10 -5.85 9.65 0 5.35 2.30 8.70 7.75 11.30 2.75 1.30 3.50 1.40 8.75 1.40 3.30 0.05 6.85 -0.25 8.30 -0.65z"/>
  <path d="M500.90 419.65 l-0.15 -54.90 -19 -0.05 -19 0 -0.15 -12.35 -0.10 -12.35 51.75 0 51.75 0 0 12.40 0 12.35 -18.90 0.05 -18.85 0.05 -0.15 54.80 -0.10 54.85 -13.50 0 -13.50 0 -0.10 -54.85z"/>
  <path d="M574 427.90 c0 -25.65 0.15 -47.85 0.30 -49.25 l0.35 -2.65 11.40 0 11.45 0 0 6.50 c0 5.95 0.45 8 1.20 5.60 0.45 -1.35 4.65 -5.40 7.85 -7.60 5.55 -3.80 14.45 -6.50 21.55 -6.50 2.55 0 2.95 0.10 2.70 0.80 -0.15 0.45 -0.30 5.45 -0.30 11.10 l0 10.35 -4.35 -0.15 c-13.50 -0.55 -22.25 4.90 -26.20 16.20 -2.15 6.20 -2.45 10.75 -2.45 37.85 l0 24.35 -11.75 0 -11.75 0 0 -46.60z"/>
  <path d="M749 425.25 l0 -49.25 12 0 12 0 0 49.25 0 49.25 -12 0 -12 0 0 -49.25z"/>
  <path d="M794.50 474.25 c0 -0.15 0 -22.25 0 -49.10 l0 -48.90 11.05 0 11.05 0 0.10 4.10 c0 2.25 0.20 4.20 0.35 4.40 0.20 0.15 1.85 -0.75 3.75 -2 5.55 -3.80 9.35 -5.45 19.20 -8.35 1.45 -0.40 4.85 -0.65 9.75 -0.60 6.50 0.05 8 0.25 11.25 1.30 10.90 3.55 17.65 10.55 21.05 21.90 1.15 3.75 1.15 4 1.35 40.65 l0.15 36.85 -12 -0.10 -12.05 -0.15 -0.05 -28 c-0.10 -31.55 -0.35 -36.70 -1.95 -40.90 -1.75 -4.65 -3.70 -6.85 -8.15 -9.05 -3.60 -1.85 -4.25 -2 -8 -2 -8.85 -0.05 -17.35 4.90 -20.50 11.90 -1.80 4 -1.95 6.30 -2.15 37.30 l-0.15 30.75 -12.05 0.15 c-6.60 0.05 -12 0 -12 -0.15z"/>
  <path d="M757.15 364.50 c-2.75 -0.55 -4.60 -1.55 -6.60 -3.60 -2.25 -2.30 -2.95 -3.80 -3.50 -7.60 -1.25 -8.85 2.15 -14.55 9.80 -16.55 5.30 -1.40 9.75 -0.55 13.75 2.50 3.45 2.60 4.60 5.35 4.60 11 0 5.45 -1.15 8.20 -4.75 11.45 -1.95 1.75 -2.90 2.20 -5.60 2.70 -3.60 0.65 -4.65 0.70 -7.70 0.10z"/>
 </g>
</svg>